<svg width="20" height="20" viewBox="0 0 20 20" fill="none" xmlns="http://www.w3.org/2000/svg">
<path d="M5 10.3462C5 10.4901 5.0249 10.6229 5.07471 10.7446C5.13005 10.8664 5.21305 10.9826 5.32373 11.0933L11.79 17.4185C11.9782 17.6066 12.2051 17.7007 12.4707 17.7007C12.6533 17.7007 12.8166 17.6564 12.9604 17.5679C13.1099 17.4849 13.2288 17.3687 13.3174 17.2192C13.4059 17.0754 13.4502 16.9149 13.4502 16.7378C13.4502 16.4722 13.3478 16.237 13.1431 16.0322L7.31592 10.3462L13.1431 4.66016C13.3478 4.4554 13.4502 4.22298 13.4502 3.96289C13.4502 3.78027 13.4059 3.61702 13.3174 3.47314C13.2288 3.32926 13.1099 3.21582 12.9604 3.13281C12.8166 3.04427 12.6533 3 12.4707 3C12.2051 3 11.9782 3.09131 11.79 3.27393L5.32373 9.59912C5.21305 9.7098 5.13005 9.82601 5.07471 9.94775C5.0249 10.0695 5 10.2023 5 10.3462Z" fill="black"/>
</svg>
