<svg width="20" height="20" viewBox="0 0 20 20" fill="none" xmlns="http://www.w3.org/2000/svg">
<path d="M2.80251 17.1972C2.93903 17.3338 3.09727 17.4239 3.27723 17.4674C3.46339 17.5109 3.64334 17.5109 3.8171 17.4674C3.99705 17.4239 4.15219 17.337 4.2825 17.2065L10.007 11.4767L15.7222 17.2065C15.8525 17.337 16.0076 17.4239 16.1876 17.4674C16.3675 17.5109 16.5475 17.5109 16.7274 17.4674C16.9074 17.4239 17.0656 17.3338 17.2021 17.1972C17.3325 17.0668 17.4193 16.9115 17.4628 16.7314C17.5062 16.5512 17.5062 16.3742 17.4628 16.2003C17.4193 16.0202 17.3325 15.8618 17.2021 15.7252L11.487 9.99534L17.2021 4.27484C17.3325 4.1382 17.4193 3.98292 17.4628 3.80901C17.5124 3.62888 17.5124 3.44876 17.4628 3.26863C17.4193 3.08851 17.3325 2.93323 17.2021 2.8028C17.0594 2.66615 16.8981 2.57609 16.7181 2.53261C16.5444 2.48913 16.3675 2.48913 16.1876 2.53261C16.0076 2.56988 15.8525 2.65683 15.7222 2.79348L10.007 8.52329L4.2825 2.79348C4.15219 2.66304 3.99705 2.57609 3.8171 2.53261C3.63714 2.48913 3.45718 2.48913 3.27723 2.53261C3.09727 2.57609 2.93903 2.66615 2.80251 2.8028C2.6722 2.93323 2.58532 3.08851 2.54189 3.26863C2.49845 3.44876 2.49845 3.62888 2.54189 3.80901C2.58532 3.98913 2.6722 4.1413 2.80251 4.26553L8.51769 9.99534L2.80251 15.7345C2.6722 15.8587 2.58222 16.0109 2.53258 16.191C2.48914 16.3711 2.48914 16.5512 2.53258 16.7314C2.57602 16.9115 2.66599 17.0668 2.80251 17.1972Z" fill="black"/>
</svg>
