<svg width="20" height="20" viewBox="0 0 20 20" fill="none" xmlns="http://www.w3.org/2000/svg">
<path d="M10.6541 17.5C10.8914 17.5 11.1122 17.4521 11.3165 17.3563C11.5207 17.2658 11.736 17.1168 11.9623 16.9093L18.5363 10.9779C18.7019 10.8289 18.8206 10.6666 18.8924 10.491C18.9641 10.3153 19 10.1503 19 9.99601C19 9.83635 18.9641 9.67137 18.8924 9.50106C18.8206 9.32544 18.7019 9.16312 18.5363 9.0141L11.9623 3.12267C11.7139 2.89915 11.4931 2.73949 11.2999 2.64369C11.1067 2.5479 10.8942 2.5 10.6624 2.5C10.3091 2.5 10.0166 2.61708 9.78473 2.85125C9.5529 3.0801 9.43698 3.3595 9.43698 3.68946V6.44359H9.25483C7.86385 6.44359 6.64949 6.65381 5.61178 7.07424C4.57406 7.48936 3.71297 8.09606 3.02852 8.89436C2.34959 9.68733 1.84177 10.6506 1.50506 11.7842C1.16835 12.9178 1 14.2004 1 15.632C1 16.2334 1.10488 16.6857 1.31463 16.9891C1.52438 17.2924 1.79485 17.4441 2.12603 17.4441C2.36891 17.4441 2.59522 17.3909 2.80497 17.2845C3.02024 17.178 3.21343 16.9678 3.38454 16.6538C3.78749 15.93 4.25943 15.3446 4.80037 14.8976C5.34131 14.4452 5.97608 14.1152 6.70469 13.9077C7.4333 13.6948 8.28335 13.5883 9.25483 13.5883H9.43698V16.3345C9.43698 16.6698 9.5529 16.9465 9.78473 17.1647C10.0166 17.3882 10.3063 17.5 10.6541 17.5ZM11.2088 15.2328C11.1205 15.2328 11.0764 15.1876 11.0764 15.0971V12.2312C11.0764 12.0556 10.988 11.9678 10.8114 11.9678H9.78473C7.92456 11.9678 6.40386 12.2312 5.22263 12.7581C4.0414 13.2797 3.19687 14.0327 2.68905 15.0173C2.67801 15.0439 2.66697 15.0652 2.65593 15.0812C2.64489 15.0918 2.63109 15.0971 2.61454 15.0971C2.5759 15.0971 2.55658 15.0705 2.55658 15.0173C2.58418 14.2563 2.68629 13.5298 2.86293 12.8379C3.03956 12.1408 3.30727 11.4995 3.66605 10.914C4.03036 10.3286 4.49126 9.82038 5.04876 9.3893C5.61178 8.95822 6.28243 8.6256 7.06072 8.39143C7.84453 8.15194 8.75253 8.0322 9.78473 8.0322H10.8114C10.988 8.0322 11.0764 7.94705 11.0764 7.77674V4.84699C11.0764 4.76716 11.1205 4.72725 11.2088 4.72725C11.2309 4.72725 11.253 4.73257 11.2751 4.74321C11.3027 4.75386 11.3275 4.76716 11.3496 4.78313L16.8638 9.85231C16.9135 9.90553 16.9384 9.95343 16.9384 9.99601C16.9384 10.0173 16.9328 10.0412 16.9218 10.0679C16.9108 10.0891 16.8914 10.1158 16.8638 10.1477L11.3413 15.161C11.2971 15.2089 11.253 15.2328 11.2088 15.2328Z" fill="black"/>
</svg>
