<svg width="20" height="20" viewBox="0 0 20 20" fill="none" xmlns="http://www.w3.org/2000/svg">
<path d="M10.6076 6.45239L9.24526 7.8147C9.60659 7.85376 9.93374 7.93921 10.2267 8.07105C10.5246 8.198 10.7711 8.36157 10.9665 8.56177C11.362 8.95239 11.6256 9.38452 11.7575 9.85816C11.8893 10.3269 11.8893 10.7957 11.7575 11.2644C11.6305 11.7332 11.3717 12.1628 10.9811 12.5535L8.47622 15.051C8.08559 15.4417 7.65591 15.7004 7.18716 15.8274C6.71841 15.9592 6.24966 15.9592 5.78091 15.8274C5.31216 15.7004 4.88247 15.4417 4.49184 15.051C4.09634 14.6555 3.83266 14.2234 3.70083 13.7546C3.56899 13.281 3.56655 12.8123 3.6935 12.3484C3.82534 11.8796 4.08657 11.4475 4.47719 11.052L5.42202 10.1145C5.28042 9.79224 5.1852 9.43335 5.13637 9.03784C5.09243 8.64233 5.12417 8.26392 5.23159 7.90259L3.2101 9.9021C2.5851 10.5222 2.16762 11.2107 1.95766 11.9675C1.75259 12.7244 1.75503 13.4812 1.96499 14.238C2.17495 14.9949 2.59243 15.6858 3.21743 16.3108C3.84731 16.9456 4.54067 17.3655 5.29751 17.5706C6.05434 17.7805 6.80874 17.7805 7.56069 17.5706C8.31753 17.3606 9.006 16.9456 9.62612 16.3254L12.2482 13.7034C12.8732 13.0833 13.2882 12.3948 13.4933 11.6379C13.7033 10.8811 13.7033 10.1243 13.4933 9.36743C13.2882 8.6106 12.8707 7.91968 12.2409 7.29468C12.0553 7.10913 11.8234 6.94312 11.5451 6.79663C11.2667 6.64526 10.9542 6.53052 10.6076 6.45239ZM9.14272 12.8684L10.4977 11.5134C10.1364 11.4695 9.80923 11.384 9.51626 11.2571C9.22329 11.1252 8.97671 10.9617 8.77651 10.7664C8.381 10.3709 8.11733 9.93872 7.9855 9.46997C7.85366 8.99634 7.85366 8.52759 7.9855 8.06372C8.11733 7.59497 8.37856 7.16528 8.76919 6.77466L11.2667 4.2771C11.6623 3.88159 12.0944 3.62036 12.5631 3.49341C13.0319 3.36157 13.4982 3.36157 13.9621 3.49341C14.4308 3.62524 14.8629 3.88647 15.2584 4.2771C15.6491 4.67261 15.9103 5.10474 16.0421 5.57349C16.174 6.04224 16.174 6.51099 16.0421 6.97974C15.9152 7.44849 15.6564 7.87817 15.2658 8.2688L14.3283 9.2063C14.4699 9.53345 14.5626 9.89478 14.6066 10.2903C14.6554 10.6809 14.6261 11.0593 14.5187 11.4255L16.5402 9.4187C17.1652 8.79858 17.5802 8.11255 17.7853 7.3606C17.9953 6.60376 17.9953 5.84692 17.7853 5.09009C17.5753 4.33325 17.1579 3.63989 16.5329 3.01001C15.8981 2.38013 15.2023 1.96265 14.4455 1.75757C13.6935 1.54761 12.9391 1.54761 12.1823 1.75757C11.4303 1.96265 10.7418 2.37769 10.1168 3.00269L7.5021 5.61743C6.8771 6.24243 6.45962 6.93335 6.24966 7.69019C6.04458 8.44214 6.04458 9.19653 6.24966 9.95337C6.45962 10.7102 6.87954 11.4011 7.50942 12.0261C7.69497 12.2166 7.9269 12.3875 8.20522 12.5388C8.48354 12.6853 8.79604 12.7952 9.14272 12.8684Z" fill="black"/>
</svg>
