<svg width="20" height="20" viewBox="0 0 20 20" fill="none" xmlns="http://www.w3.org/2000/svg">
<path d="M2 2.125C2 1.82663 2.11853 1.54048 2.32951 1.32951C2.54048 1.11853 2.82663 1 3.125 1H17.1875C17.4859 1 17.772 1.11853 17.983 1.32951C18.194 1.54048 18.3125 1.82663 18.3125 2.125V4.375C18.3125 4.67337 18.194 4.95952 17.983 5.1705C17.772 5.38147 17.4859 5.5 17.1875 5.5C16.8891 5.5 16.603 5.38147 16.392 5.1705C16.181 4.95952 16.0625 4.67337 16.0625 4.375V3.25H11.2812V16.75H12.4062C12.7046 16.75 12.9908 16.8685 13.2017 17.0795C13.4127 17.2905 13.5312 17.5766 13.5312 17.875C13.5312 18.1734 13.4127 18.4595 13.2017 18.6705C12.9908 18.8815 12.7046 19 12.4062 19H7.90625C7.60788 19 7.32173 18.8815 7.11075 18.6705C6.89978 18.4595 6.78125 18.1734 6.78125 17.875C6.78125 17.5766 6.89978 17.2905 7.11075 17.0795C7.32173 16.8685 7.60788 16.75 7.90625 16.75H9.03125V3.25H4.25V4.375C4.25 4.67337 4.13147 4.95952 3.92049 5.1705C3.70952 5.38147 3.42337 5.5 3.125 5.5C2.82663 5.5 2.54048 5.38147 2.32951 5.1705C2.11853 4.95952 2 4.67337 2 4.375V2.125Z" fill="black"/>
</svg>
